<?xml version="1.0" encoding="UTF-8" standalone="no"?>
<svg
   id="Layer_1"
   height="512"
   viewBox="0 0 512 512"
   width="512"
   data-name="Layer 1"
   version="1.1"
   sodipodi:docname="013-mail.svg"
   inkscape:version="1.1 (c68e22c387, 2021-05-23)"
   xmlns:inkscape="http://www.inkscape.org/namespaces/inkscape"
   xmlns:sodipodi="http://sodipodi.sourceforge.net/DTD/sodipodi-0.dtd"
   xmlns="http://www.w3.org/2000/svg"
   xmlns:svg="http://www.w3.org/2000/svg">
  <defs
     id="defs7" />
  <sodipodi:namedview
     id="namedview5"
     pagecolor="#ffffff"
     bordercolor="#666666"
     borderopacity="1.0"
     inkscape:pageshadow="2"
     inkscape:pageopacity="0.0"
     inkscape:pagecheckerboard="0"
     showgrid="false"
     inkscape:zoom="1.6445312"
     inkscape:cx="232.58908"
     inkscape:cy="231.981"
     inkscape:window-width="1920"
     inkscape:window-height="1027"
     inkscape:window-x="-8"
     inkscape:window-y="-8"
     inkscape:window-maximized="1"
     inkscape:current-layer="Layer_1" />
  <path
     d="m 249.31116,-6.0807601 c 141.385,0 256,114.6150001 256,256.0000001 0,141.385 -114.615,256 -256,256 -141.385,0 -255.9999963,-114.615 -255.9999963,-256 0,-141.385 114.6149963,-256.0000001 255.9999963,-256.0000001 z m 131.017,346.8000001 c 3.02586,-0.008 5.47676,-2.45914 5.485,-5.485 v -167.086 l -130.437,103.655 c -3.55138,2.8175 -8.57562,2.8175 -12.127,0 l -130.438,-103.655 v 167.084 c 0.005,3.02762 2.45838,5.4806 5.486,5.485 z m -14.5,-181.6 h -233.035 l 116.518,92.594 116.521,-92.594 z m 14.5,-19.5 h -262.03 c -13.79446,0.0132 -24.973769,11.19254 -24.987,24.987 v 170.626 c 0.01323,13.79446 11.19254,24.97377 24.987,24.987 h 262.03 c 13.79358,-0.0138 24.97142,-11.19342 24.983,-24.987 v -170.626 c -0.0116,-13.79358 -11.18942,-24.97322 -24.983,-24.987 z"
     fill-rule="evenodd"
     id="path2"
     sodipodi:nodetypes="sssssccccccccccccccccccccccc"
     style="fill:#202124;fill-opacity:1" />
</svg>
