<?xml version="1.0" encoding="UTF-8" standalone="no"?>
<!-- Generator: Adobe Illustrator 19.0.0, SVG Export Plug-In . SVG Version: 6.00 Build 0)  -->

<svg
   version="1.1"
   id="Layer_1"
   x="0px"
   y="0px"
   viewBox="0 0 512.003 512.003"
   style="enable-background:new 0 0 512.003 512.003;"
   xml:space="preserve"
   sodipodi:docname="1652445661linkedin-social-media-svgrepo-com.svg"
   inkscape:version="1.1 (c68e22c387, 2021-05-23)"
   xmlns:inkscape="http://www.inkscape.org/namespaces/inkscape"
   xmlns:sodipodi="http://sodipodi.sourceforge.net/DTD/sodipodi-0.dtd"
   xmlns="http://www.w3.org/2000/svg"
   xmlns:svg="http://www.w3.org/2000/svg"><defs
   id="defs47" /><sodipodi:namedview
   id="namedview45"
   pagecolor="#ffffff"
   bordercolor="#666666"
   borderopacity="1.0"
   inkscape:pageshadow="2"
   inkscape:pageopacity="0.0"
   inkscape:pagecheckerboard="0"
   showgrid="false"
   inkscape:zoom="1.1628524"
   inkscape:cx="138.02268"
   inkscape:cy="230.89775"
   inkscape:window-width="1920"
   inkscape:window-height="1027"
   inkscape:window-x="-8"
   inkscape:window-y="-8"
   inkscape:window-maximized="1"
   inkscape:current-layer="Layer_1" />
<g
   transform="translate(0 -1)"
   id="g12"
   style="fill:#999999;fill-opacity:1">
	<g
   id="g10"
   style="fill:#999999;fill-opacity:1">
		<g
   id="g8"
   style="fill:#999999;fill-opacity:1">
			<path
   d="M68.762,5.195h-0.06c-18.261,0-35.482,7.1-48.478,19.985C7.185,38.1,0,55.243,0,73.453     c-0.009,18.611,7.33,36.053,20.625,49.092c12.894,12.629,30.481,19.721,47.531,19.311c0.495,0.009,0.99,0.017,1.493,0.017     c17.092,0,34.014-6.963,46.618-19.251c13.286-12.945,20.625-30.319,20.668-48.922c0.043-18.193-7.074-35.362-20.019-48.358     C103.979,12.363,86.878,5.212,68.762,5.195z"
   id="path2"
   style="fill:#999999;fill-opacity:1" />
			<path
   d="M102.403,158.941H33.411c-13.713,0-24.875,11.511-24.875,25.651v298.615c0,13.841,11.725,25.532,25.6,25.532h68.267     c13.875,0,25.6-11.46,25.6-25.011V184.541C128.003,170.666,116.279,158.941,102.403,158.941z"
   id="path4"
   style="fill:#999999;fill-opacity:1" />
			<path
   d="M393.645,150.408h-17.98c-33.135,0-64.922,14.114-85.53,37.427v-11.827c0-8.457-8.619-17.067-17.067-17.067h-85.333     c-7.893,0-17.067,6.997-17.067,16.017v318.404c0,9.054,8.994,15.369,17.067,15.377l93.867,0.026     c8.073,0,17.067-6.315,17.067-15.377V309.435c0-27.75,20.574-49.724,46.839-50.022c13.355-0.299,25.975,4.966,35.422,14.43     c7.808,7.808,11.605,19.208,11.605,34.859v183.04c0,8.457,8.619,17.067,17.067,17.067h85.333c8.448,0,17.067-8.61,17.067-17.067     V271.496C512.003,203.596,460.009,150.408,393.645,150.408z"
   id="path6"
   style="fill:#999999;fill-opacity:1" />
		</g>
	</g>
</g>
</svg>
